<?xml version="1.0" encoding="utf-8"?>
<!-- Generator: Adobe Illustrator 23.0.0, SVG Export Plug-In . SVG Version: 6.00 Build 0)  -->
<svg version="1.1" id="Layer_1" xmlns="http://www.w3.org/2000/svg" xmlns:xlink="http://www.w3.org/1999/xlink" x="0px" y="0px"
	 viewBox="0 0 64 64" style="enable-background:new 0 0 64 64;" xml:space="preserve">
<style type="text/css">
	.st0{fill:"currentColor";}
</style>
<path class="st0" d="M53.3,10.7H10.7c-2.9,0-5.3,2.4-5.3,5.3v32c0,2.9,2.4,5.3,5.3,5.3h42.7c2.9,0,5.3-2.4,5.3-5.3V16
	C58.7,13.1,56.3,10.7,53.3,10.7z M52.3,22L34.8,32.9c-1.7,1.1-3.9,1.1-5.7,0L11.7,22c-0.7-0.4-1.1-1.1-1.1-1.9
	c0-1.8,1.9-2.9,3.5-1.9L32,29.3l17.9-11.2c1.5-0.9,3.5,0.1,3.5,1.9C53.3,20.9,52.9,21.6,52.3,22z"/>
</svg>
