<?xml version="1.0" encoding="utf-8"?>
<!-- Generator: Adobe Illustrator 23.0.0, SVG Export Plug-In . SVG Version: 6.00 Build 0)  -->
<svg version="1.1" id="Layer_1" xmlns="http://www.w3.org/2000/svg" xmlns:xlink="http://www.w3.org/1999/xlink" x="0px" y="0px"
	 viewBox="0 0 38 50" style="enable-background:new 0 0 38 50;" xml:space="preserve">
<style type="text/css">
	.st0{fill:'currentColor';}
</style>
<path class="st0" d="M20.2,0C10,0,0,6.8,0,17.7c0,7,3.9,10.9,6.3,10.9c1,0,1.5-2.7,1.5-3.5c0-0.9-2.3-2.9-2.3-6.7
	c0-8,6.1-13.6,13.9-13.6c6.7,0,11.7,3.8,11.7,10.9c0,5.3-2.1,15.1-8.9,15.1c-2.5,0-4.6-1.8-4.6-4.3c0-3.7,2.4-7.4,2.4-11.2
	c0-6.6-9.1-5.4-9.1,2.6c0,1.7,0.2,3.5,0.9,5C10.5,28.7,8,38.1,8,44.1c0,1.9,0.3,3.7,0.4,5.6c0.3,0.4,0.2,0.3,0.7,0.1
	c5-6.8,4.5-8.8,6.8-17.7c1.2,2.3,4.4,3.6,6.9,3.6C33.3,35.7,38,25.5,38,16.2C38,6.4,29.5,0,20.2,0L20.2,0z"/>
</svg>
