<?xml version="1.0" encoding="utf-8"?>
<!-- Generator: Adobe Illustrator 23.0.0, SVG Export Plug-In . SVG Version: 6.00 Build 0)  -->
<svg version="1.1" id="Layer_1" xmlns="http://www.w3.org/2000/svg" xmlns:xlink="http://www.w3.org/1999/xlink" x="0px" y="0px"
	 viewBox="0 0 659.4 800" style="enable-background:new 0 0 659.4 800;" xml:space="preserve">
<style type="text/css">
	.st0{fill:'currentColor';}
</style>
<title>tiktok</title>
<path class="st0" d="M350.1,25.7c40.9-0.6,81.5-0.3,122.1-0.6c1.4,50.8,21.9,96.5,54.7,130.3l-0.1-0.1
	c35.3,31.8,81.2,52.4,131.8,55.9l0.7,0v125.9C611.6,336,566.7,325,526.2,306l2.1,0.9c-19.6-9.4-36.2-19.1-51.9-29.9l1.3,0.9
	c-0.3,91.2,0.3,182.4-0.6,273.4c-2.6,46.3-18,88.6-42.7,123.9l0.5-0.8c-41.3,59.2-108.2,98-184.3,100.3h-0.3
	c-3.1,0.2-6.7,0.2-10.3,0.2c-43.2,0-83.7-12-118.1-33l1,0.6C60,704.6,16.7,640.1,8.7,565l-0.1-1c-0.6-15.6-0.9-31.3-0.3-46.5
	c12.2-119.5,112.3-211.9,234-211.9c13.7,0,27.1,1.2,40.1,3.4l-1.4-0.2c0.6,46.2-1.3,92.5-1.3,138.7c-10.6-3.8-22.8-6.1-35.5-6.1
	c-46.7,0-86.4,29.9-101.1,71.5l-0.2,0.8c-3.3,10.7-5.3,22.9-5.3,35.7c0,5.1,0.3,10.3,0.9,15.3l0-0.6c8.3,51.1,52.2,89.8,105,89.8
	c1.5,0,3,0,4.5-0.1h-0.2c36.6-1.1,68.3-20.8,86.3-49.8l0.3-0.4c6.7-9.3,11.3-20.6,12.8-32.8l0-0.4c3.1-55.9,1.9-111.5,2.2-167.4
	c0.3-125.9-0.3-251.5,0.6-377.1L350.1,25.7z"/>
</svg>
