<?xml version="1.0" encoding="utf-8"?>
<!-- Generator: Adobe Illustrator 23.0.0, SVG Export Plug-In . SVG Version: 6.00 Build 0)  -->
<svg version="1.1" id="Layer_1" xmlns="http://www.w3.org/2000/svg" xmlns:xlink="http://www.w3.org/1999/xlink" x="0px" y="0px"
	 viewBox="0 0 17.2 13.9" style="enable-background:new 0 0 17.2 13.9;" xml:space="preserve">
<style type="text/css">
	.st0{fill:'currentColor';}
</style>
<g>
	<path class="st0" d="M17.2,1.7c-0.6,0.3-1.3,0.5-2,0.5c0.8-0.4,1.3-1.1,1.6-1.9C16,0.7,15.3,1,14.5,1.1C13.8,0.4,12.9,0,11.9,0
		C10,0,8.4,1.6,8.4,3.5c0,0.3,0.1,0.5,0.1,0.8C5.6,4.2,3,2.8,1.2,0.6C0.9,1.2,0.8,1.8,0.8,2.4c0,1.2,0.6,2.3,1.6,2.9
		c-0.6,0-1.1-0.2-1.6-0.4V5c0,1.7,1.2,3.1,2.8,3.4C3.2,8.5,2.9,8.5,2.6,8.5c-0.2,0-0.4,0-0.6-0.1c0.4,1.4,1.8,2.4,3.3,2.5
		c-1.2,1-2.7,1.5-4.4,1.5c-0.3,0-0.6,0-0.9-0.1c1.6,1,3.5,1.6,5.5,1.6c6.5,0,10-5.4,10-10c0-0.2,0-0.3,0-0.4
		C16.1,2.9,16.7,2.4,17.2,1.7z"/>
</g>
</svg>
