<?xml version="1.0" encoding="utf-8"?>
<!-- Generator: Adobe Illustrator 23.0.0, SVG Export Plug-In . SVG Version: 6.00 Build 0)  -->
<svg version="1.1" id="Layer_1" xmlns="http://www.w3.org/2000/svg" xmlns:xlink="http://www.w3.org/1999/xlink" x="0px" y="0px"
	 viewBox="0 0 24 23.9" style="enable-background:new 0 0 24 23.9;" xml:space="preserve">
<style type="text/css">
	.st0{fill-rule:evenodd;clip-rule:evenodd;fill:"currentColor";}
</style>
<path class="st0" d="M20.5,3.5C18.3,1.3,15.2,0,12,0C5.5,0,0.1,5.4,0.1,11.9c0,2.1,0.5,4.2,1.6,6L0,24.1l6.3-1.7
	c1.8,1,3.7,1.5,5.7,1.5h0C18.6,23.9,24,18.5,24,12C24,8.8,22.8,5.8,20.5,3.5L20.5,3.5z M12,21.9L12,21.9c-1.8,0-3.5-0.5-5.1-1.4
	l-0.4-0.2l-3.8,1l1-3.7l-0.2-0.4c-1-1.6-1.5-3.4-1.5-5.3C2.1,6.5,6.6,2,12.1,2c2.6,0,5.2,1,7,2.9c1.9,1.9,2.9,4.4,2.9,7
	C22,17.4,17.5,21.9,12,21.9L12,21.9z M17.5,14.4c-0.3-0.1-1.8-0.9-2-1c-0.3-0.1-0.5-0.1-0.7,0.1c-0.2,0.3-0.8,1-0.9,1.2
	c-0.2,0.2-0.3,0.2-0.6,0.1c-0.3-0.1-1.3-0.5-2.4-1.5c-0.9-0.8-1.5-1.8-1.7-2.1c-0.2-0.3,0-0.5,0.1-0.6c0.1-0.1,0.3-0.3,0.4-0.5
	C9.9,10,9.9,9.9,10,9.7c0.1-0.2,0-0.4,0-0.5C9.9,9,9.3,7.5,9.1,6.9C8.8,6.4,8.6,6.4,8.4,6.4c-0.2,0-0.4,0-0.6,0
	C7.6,6.4,7.3,6.5,7,6.8c-0.3,0.3-1,1-1,2.5c0,1.5,1.1,2.9,1.2,3.1c0.1,0.2,2.1,3.2,5.1,4.5c0.7,0.3,1.3,0.5,1.7,0.6
	c0.7,0.2,1.4,0.2,1.9,0.1c0.6-0.1,1.8-0.7,2-1.4c0.2-0.7,0.2-1.3,0.2-1.4C18,14.7,17.8,14.6,17.5,14.4z"/>
</svg>
