<?xml version="1.0" encoding="utf-8"?>
<!-- Generator: Adobe Illustrator 23.0.0, SVG Export Plug-In . SVG Version: 6.00 Build 0)  -->
<svg version="1.1" id="Layer_1" xmlns="http://www.w3.org/2000/svg" xmlns:xlink="http://www.w3.org/1999/xlink" x="0px" y="0px"
	 viewBox="0 0 26.6 18.7" style="enable-background:new 0 0 26.6 18.7;" xml:space="preserve">
<style type="text/css">
	.st0{fill:"currentColor";}
</style>
<path class="st0" d="M10.6,13.3l6.9-4l-6.9-4V13.3 M26,2.9c0.2,0.6,0.3,1.5,0.4,2.5c0.1,1.1,0.1,2,0.1,2.8l0.1,1.1
	c0,2.9-0.2,5.1-0.6,6.4c-0.3,1.2-1.1,2-2.3,2.3c-0.6,0.2-1.8,0.3-3.5,0.4c-1.7,0.1-3.3,0.1-4.8,0.1l-2.1,0.1
	c-5.6,0-9.1-0.2-10.4-0.6c-1.2-0.3-2-1.1-2.3-2.3c-0.2-0.6-0.3-1.5-0.4-2.5C0,12.3,0,11.4,0,10.5l-0.1-1.1c0-2.9,0.2-5.1,0.6-6.4
	c0.3-1.2,1.1-2,2.3-2.3c0.6-0.2,1.8-0.3,3.5-0.4c1.6-0.1,3.2-0.1,4.8-0.1L13.3,0c5.6,0,9.1,0.2,10.4,0.6C24.9,0.9,25.7,1.7,26,2.9z"
	/>
</svg>
